Khula-wt937.36.ufo
<glyph name="six.deva" format="1">
  <advance width="1080"/>
  <unicode hex="0036"/>
  <outline>
    <contour>
      <point x="63" y="556" type="curve" smooth="yes"/>
      <point x="62" y="1108"/>
      <point x="303" y="1331"/>
      <point x="752" y="1335" type="curve" smooth="yes"/>
      <point x="805" y="1335"/>
      <point x="868" y="1330"/>
      <point x="940" y="1319" type="curve"/>
      <point x="940" y="1041" type="line"/>
      <point x="880" y="1052"/>
      <point x="815" y="1058"/>
      <point x="744" y="1058" type="curve" smooth="yes"/>
      <point x="507" y="1058"/>
      <point x="394" y="961"/>
      <point x="383" y="724" type="curve"/>
      <point x="394" y="724" type="line"/>
      <point x="448" y="826"/>
      <point x="535" y="877"/>
      <point x="654" y="877" type="curve" smooth="yes"/>
      <point x="771" y="877"/>
      <point x="862" y="839"/>
      <point x="926" y="764" type="curve" smooth="yes"/>
      <point x="991" y="689"/>
      <point x="1023" y="585"/>
      <point x="1023" y="450" type="curve" smooth="yes"/>
      <point x="1023" y="305"/>
      <point x="982" y="191"/>
      <point x="900" y="107" type="curve" smooth="yes"/>
      <point x="819" y="24"/>
      <point x="705" y="-18"/>
      <point x="559" y="-18" type="curve" smooth="yes"/>
      <point x="404" y="-18"/>
      <point x="282" y="32"/>
      <point x="194" y="133" type="curve" smooth="yes"/>
      <point x="107" y="234"/>
      <point x="63" y="375"/>
    </contour>
    <contour>
      <point x="551" y="264" type="curve" smooth="yes"/>
      <point x="626" y="264"/>
      <point x="679" y="318"/>
      <point x="679" y="443" type="curve" smooth="yes"/>
      <point x="679" y="550"/>
      <point x="637" y="603"/>
      <point x="554" y="603" type="curve" smooth="yes"/>
      <point x="513" y="603"/>
      <point x="480" y="589"/>
      <point x="455" y="561" type="curve" smooth="yes"/>
      <point x="430" y="534"/>
      <point x="417" y="500"/>
      <point x="417" y="461" type="curve" smooth="yes"/>
      <point x="417" y="345"/>
      <point x="470" y="264"/>
    </contour>
  </outline>
</glyph>
<glyph name="D" format="1">
  <advance width="1353"/>
  <unicode hex="0044"/>
  <outline>
    <contour>
      <point x="1259" y="686" type="curve" smooth="yes"/>
      <point x="1259" y="466"/>
      <point x="1198" y="297"/>
      <point x="1077" y="178" type="curve" smooth="yes"/>
      <point x="956" y="59"/>
      <point x="787" y="0"/>
      <point x="568" y="0" type="curve" smooth="yes"/>
      <point x="142" y="0" type="line"/>
      <point x="142" y="1316" type="line"/>
      <point x="598" y="1316" type="line" smooth="yes"/>
      <point x="809" y="1316"/>
      <point x="971" y="1262"/>
      <point x="1086" y="1154" type="curve" smooth="yes"/>
      <point x="1201" y="1046"/>
      <point x="1259" y="890"/>
    </contour>
    <contour>
      <point x="890" y="673" type="curve" smooth="yes"/>
      <point x="890" y="914"/>
      <point x="796" y="1029"/>
      <point x="601" y="1029" type="curve" smooth="yes"/>
      <point x="498" y="1029" type="line"/>
      <point x="498" y="292" type="line"/>
      <point x="577" y="292" type="line" smooth="yes"/>
      <point x="793" y="292"/>
      <point x="890" y="416"/>
    </contour>
  </outline>
</glyph>
<glyph name="E" format="1">
  <advance width="1012"/>
  <unicode hex="0045"/>
  <outline>
    <contour>
      <point x="923" y="0" type="line"/>
      <point x="142" y="0" type="line"/>
      <point x="142" y="1316" type="line"/>
      <point x="923" y="1316" type="line"/>
      <point x="923" y="1030" type="line"/>
      <point x="498" y="1030" type="line"/>
      <point x="498" y="823" type="line"/>
      <point x="892" y="823" type="line"/>
      <point x="892" y="538" type="line"/>
      <point x="498" y="538" type="line"/>
      <point x="498" y="290" type="line"/>
      <point x="923" y="290" type="line"/>
    </contour>
  </outline>
</glyph>
<glyph name="grave" format="1">
  <advance width="1101"/>
  <unicode hex="0060"/>
  <outline>
    <contour>
      <point x="631" y="1241" type="line"/>
      <point x="592" y="1265"/>
      <point x="531" y="1305"/>
      <point x="455" y="1357" type="curve"/>
      <point x="377" y="1414"/>
      <point x="308" y="1465"/>
      <point x="252" y="1509" type="curve"/>
      <point x="249" y="1513"/>
      <point x="247" y="1533"/>
      <point x="245" y="1535" type="curve"/>
      <point x="608" y="1536" type="line"/>
      <point x="637" y="1497"/>
      <point x="701" y="1432"/>
      <point x="787" y="1340" type="curve"/>
      <point x="788" y="1338"/>
      <point x="839" y="1279"/>
      <point x="842" y="1276" type="curve" smooth="yes"/>
      <point x="845" y="1272"/>
      <point x="847" y="1245"/>
      <point x="850" y="1242" type="curve"/>
    </contour>
  </outline>
</glyph>
<glyph name="i" format="1">
  <advance width="599"/>
  <unicode hex="0069"/>
  <outline>
    <contour>
      <point x="475" y="0" type="line"/>
      <point x="123" y="0" type="line"/>
      <point x="123" y="1020" type="line"/>
      <point x="475" y="1020" type="line"/>
    </contour>
    <contour>
      <point x="114" y="1273" type="curve" smooth="yes"/>
      <point x="114" y="1380"/>
      <point x="169" y="1430"/>
      <point x="301" y="1430" type="curve" smooth="yes"/>
      <point x="432" y="1430"/>
      <point x="489" y="1377"/>
      <point x="489" y="1273" type="curve" smooth="yes"/>
      <point x="489" y="1170"/>
      <point x="426" y="1119"/>
      <point x="301" y="1119" type="curve" smooth="yes"/>
      <point x="176" y="1119"/>
      <point x="114" y="1170"/>
    </contour>
  </outline>
</glyph>
<glyph name="asciitilde.deva" format="1">
  <advance width="1043"/>
  <unicode hex="007E"/>
  <outline>
    <contour>
      <point x="274" y="582" type="curve" smooth="yes"/>
      <point x="208" y="582"/>
      <point x="138" y="546"/>
      <point x="65" y="473" type="curve"/>
      <point x="65" y="726" type="line"/>
      <point x="127" y="791"/>
      <point x="206" y="823"/>
      <point x="302" y="823" type="curve" smooth="yes"/>
      <point x="343" y="823"/>
      <point x="382" y="819"/>
      <point x="419" y="811" type="curve" smooth="yes"/>
      <point x="456" y="803"/>
      <point x="501" y="788"/>
      <point x="554" y="767" type="curve" smooth="yes"/>
      <point x="633" y="734"/>
      <point x="704" y="717"/>
      <point x="769" y="717" type="curve" smooth="yes"/>
      <point x="829" y="717"/>
      <point x="909" y="758"/>
      <point x="976" y="826" type="curve"/>
      <point x="976" y="573" type="line"/>
      <point x="913" y="508"/>
      <point x="834" y="475"/>
      <point x="739" y="475" type="curve" smooth="yes"/>
      <point x="696" y="475"/>
      <point x="656" y="479"/>
      <point x="618" y="488" type="curve" smooth="yes"/>
      <point x="581" y="497"/>
      <point x="537" y="512"/>
      <point x="487" y="533" type="curve" smooth="yes"/>
      <point x="408" y="566"/>
      <point x="337" y="582"/>
    </contour>
  </outline>
</glyph>
<glyph name="rvocalicdeva" format="1">
  <advance width="1729"/>
  <unicode hex="090B"/>
  <outline>
    <contour>
      <point x="961" y="764" type="line"/>
      <point x="1003" y="710"/>
      <point x="1048" y="687"/>
      <point x="1121" y="687" type="curve" smooth="yes"/>
      <point x="1168" y="687"/>
      <point x="1227" y="696"/>
      <point x="1300" y="731" type="curve"/>
      <point x="1194" y="655" type="line"/>
      <point x="1166" y="709"/>
      <point x="1149" y="751"/>
      <point x="1149" y="796" type="curve" smooth="yes"/>
      <point x="1149" y="863"/>
      <point x="1200" y="931"/>
      <point x="1317" y="931" type="curve" smooth="yes"/>
      <point x="1499" y="931"/>
      <point x="1637" y="832"/>
      <point x="1637" y="726" type="curve" smooth="yes"/>
      <point x="1637" y="600"/>
      <point x="1457" y="446"/>
      <point x="1151" y="446" type="curve" smooth="yes"/>
      <point x="1042" y="446"/>
      <point x="937" y="475"/>
      <point x="838" y="531" type="curve"/>
    </contour>
    <contour>
      <point x="1252" y="525" type="curve"/>
      <point x="1484" y="639" type="line"/>
      <point x="1578" y="508"/>
      <point x="1628" y="402"/>
      <point x="1628" y="295" type="curve" smooth="yes"/>
      <point x="1628" y="156"/>
      <point x="1548" y="17"/>
      <point x="1303" y="-7" type="curve"/>
      <point x="1143" y="219" type="line"/>
      <point x="1278" y="244"/>
      <point x="1340" y="293"/>
      <point x="1340" y="361" type="curve" smooth="yes"/>
      <point x="1340" y="415"/>
      <point x="1319" y="450"/>
    </contour>
    <contour>
      <point x="-79" y="1065" type="line"/>
      <point x="-79" y="1293" type="line"/>
      <point x="1728" y="1293" type="line"/>
      <point x="1728" y="1065" type="line"/>
    </contour>
    <contour>
      <point x="887" y="381" type="line"/>
      <point x="251" y="77" type="line"/>
      <point x="92" y="325" type="line"/>
      <point x="728" y="615" type="line"/>
    </contour>
    <contour>
      <point x="-13" y="862" type="line"/>
      <point x="69" y="903"/>
      <point x="186" y="934"/>
      <point x="285" y="934" type="curve" smooth="yes"/>
      <point x="434" y="934"/>
      <point x="565" y="878"/>
      <point x="727" y="775" type="curve"/>
      <point x="727" y="471" type="line"/>
      <point x="572" y="585"/>
      <point x="446" y="647"/>
      <point x="332" y="647" type="curve" smooth="yes"/>
      <point x="251" y="647"/>
      <point x="145" y="615"/>
      <point x="70" y="572" type="curve"/>
    </contour>
    <contour>
      <point x="690" y="1104" type="line"/>
      <point x="1039" y="1104" type="line"/>
      <point x="1039" y="0" type="line"/>
      <point x="690" y="0" type="line"/>
    </contour>
    <contour>
      <point x="913" y="1280" type="move" name="mark0"/>
    </contour>
  </outline>
</glyph>
<glyph name="ngadeva" format="1">
  <advance width="1518"/>
  <unicode hex="0919"/>
  <outline>
    <contour>
      <point x="1178" y="1065" type="line"/>
      <point x="1178" y="1293" type="line"/>
      <point x="1560" y="1293" type="line"/>
      <point x="1560" y="1065" type="line"/>
    </contour>
    <contour>
      <point x="1269" y="812" type="curve" smooth="yes"/>
      <point x="1401" y="812"/>
      <point x="1444" y="732"/>
      <point x="1444" y="668" type="curve" smooth="yes"/>
      <point x="1444" y="604"/>
      <point x="1393" y="524"/>
      <point x="1269" y="524" type="curve" smooth="yes"/>
      <point x="1136" y="524"/>
      <point x="1090" y="605"/>
      <point x="1090" y="668" type="curve" smooth="yes"/>
      <point x="1090" y="731"/>
      <point x="1139" y="812"/>
    </contour>
    <component base="ddadeva"/>
    <contour>
      <point x="48" y="8" type="move" name="x56"/>
    </contour>
    <contour>
      <point x="1737" y="8" type="move" name="x57"/>
    </contour>
    <contour>
      <point x="853" y="8" type="move" name="mark0"/>
    </contour>
  </outline>
</glyph>
<glyph name="ddhadeva" format="1">
  <advance width="1241"/>
  <unicode hex="0922"/>
  <outline>
    <contour>
      <point x="1272" y="1065" type="line"/>
      <point x="-54" y="1065" type="line"/>
      <point x="-54" y="1293" type="line"/>
      <point x="1272" y="1293" type="line"/>
    </contour>
    <contour>
      <point x="675" y="1095" type="line"/>
      <point x="1005" y="1095" type="line"/>
      <point x="1005" y="666" type="line"/>
      <point x="664" y="666" type="line"/>
      <point x="438" y="666"/>
      <point x="355" y="557"/>
      <point x="355" y="436" type="curve" smooth="yes"/>
      <point x="355" y="306"/>
      <point x="503" y="198"/>
      <point x="718" y="198" type="curve" smooth="yes"/>
      <point x="856" y="198"/>
      <point x="934" y="255"/>
      <point x="934" y="319" type="curve" smooth="yes"/>
      <point x="934" y="362"/>
      <point x="900" y="382"/>
      <point x="860" y="382" type="curve" smooth="yes"/>
      <point x="783" y="382"/>
      <point x="720" y="323"/>
      <point x="720" y="249" type="curve" smooth="yes"/>
      <point x="720" y="204"/>
      <point x="737" y="163"/>
      <point x="752" y="124" type="curve"/>
      <point x="504" y="96" type="line"/>
      <point x="462" y="161"/>
      <point x="451" y="210"/>
      <point x="451" y="282" type="curve" smooth="yes"/>
      <point x="451" y="436"/>
      <point x="583" y="580"/>
      <point x="839" y="580" type="curve" smooth="yes"/>
      <point x="1077" y="580"/>
      <point x="1211" y="474"/>
      <point x="1211" y="307" type="curve" smooth="yes"/>
      <point x="1211" y="161"/>
      <point x="1071" y="9"/>
      <point x="722" y="9" type="curve" smooth="yes"/>
      <point x="286" y="9"/>
      <point x="38" y="267"/>
      <point x="38" y="502" type="curve" smooth="yes"/>
      <point x="38" y="719"/>
      <point x="172" y="894"/>
      <point x="558" y="894" type="curve" smooth="yes"/>
      <point x="716" y="894" type="line"/>
      <point x="675" y="860" type="line"/>
    </contour>
    <contour>
      <point x="576" y="8" type="move" name="mark0"/>
    </contour>
    <contour>
      <point x="1224" y="8" type="move" name="x44"/>
    </contour>
    <contour>
      <point x="-104" y="8" type="move" name="x43"/>
    </contour>
  </outline>
</glyph>
<glyph name="phadeva" format="1">
  <advance width="1761"/>
  <unicode hex="092B"/>
  <outline>
    <contour>
      <point x="471" y="1171" type="line"/>
      <point x="471" y="708" type="line"/>
      <point x="471" y="619"/>
      <point x="511" y="570"/>
      <point x="586" y="570" type="curve" smooth="yes"/>
      <point x="662" y="570"/>
      <point x="720" y="603"/>
      <point x="793" y="670" type="curve"/>
      <point x="793" y="324" type="line"/>
      <point x="745" y="310"/>
      <point x="694" y="304"/>
      <point x="634" y="304" type="curve" smooth="yes"/>
      <point x="324" y="304"/>
      <point x="122" y="495"/>
      <point x="122" y="787" type="curve" smooth="yes"/>
      <point x="122" y="1171" type="line"/>
    </contour>
    <contour>
      <point x="1066" y="400" type="curve"/>
      <point x="1056" y="821" type="line"/>
      <point x="1124" y="829"/>
      <point x="1179" y="835"/>
      <point x="1274" y="835" type="curve" smooth="yes"/>
      <point x="1554" y="835"/>
      <point x="1728" y="656"/>
      <point x="1728" y="434" type="curve" smooth="yes"/>
      <point x="1728" y="305"/>
      <point x="1674" y="156"/>
      <point x="1588" y="62" type="curve"/>
      <point x="1312" y="168" type="line"/>
      <point x="1387" y="275"/>
      <point x="1432" y="367"/>
      <point x="1432" y="468" type="curve" smooth="yes"/>
      <point x="1432" y="524"/>
      <point x="1395" y="554"/>
      <point x="1330" y="554" type="curve" smooth="yes"/>
      <point x="1250" y="554"/>
      <point x="1147" y="504"/>
    </contour>
    <contour>
      <point x="-39" y="1065" type="line"/>
      <point x="-39" y="1293" type="line"/>
      <point x="1785" y="1293" type="line"/>
      <point x="1785" y="1065" type="line"/>
    </contour>
    <contour>
      <point x="763" y="1104" type="line"/>
      <point x="1112" y="1104" type="line"/>
      <point x="1112" y="0" type="line"/>
      <point x="763" y="0" type="line"/>
    </contour>
    <contour>
      <point x="862" y="8" type="move" name="x2"/>
    </contour>
    <contour>
      <point x="862" y="8" type="move" name="mark0"/>
    </contour>
    <contour>
      <point x="24" y="8" type="move" name="x43"/>
    </contour>
  </outline>
</glyph>
<glyph name="badeva" format="1">
  <advance width="1284"/>
  <unicode hex="092C"/>
  <outline>
    <contour>
      <point x="771" y="436" type="line"/>
      <point x="647" y="344" type="line"/>
      <point x="340" y="694" type="line"/>
      <point x="465" y="786" type="line"/>
    </contour>
    <component base="vadeva"/>
  </outline>
</glyph>
<glyph name="ssadeva" format="1">
  <advance width="1307"/>
  <unicode hex="0937"/>
  <outline>
    <contour>
      <point x="882" y="605" type="line"/>
      <point x="757" y="513" type="line"/>
      <point x="310" y="1054" type="line"/>
      <point x="435" y="1146" type="line"/>
    </contour>
    <component base="padeva"/>
  </outline>
</glyph>
<glyph name="evowelsigndeva" format="1">
  <advance width="0"/>
  <unicode hex="0947"/>
  <outline>
    <contour>
      <point x="-571" y="1244" type="line"/>
      <point x="-983" y="1644" type="line"/>
      <point x="-696" y="1795" type="line"/>
      <point x="-192" y="1244" type="line"/>
    </contour>
    <contour>
      <point x="49" y="8" type="move" name="x14"/>
    </contour>
    <contour>
      <point x="-424" y="1282" type="move" name="_mark0"/>
    </contour>
  </outline>
</glyph>
<glyph name="dddhadeva" format="1">
  <advance width="1241"/>
  <unicode hex="095C"/>
  <outline>
    <component base="ddadeva"/>
    <component base="nuktadeva" xOffset="1518"/>
    <contour>
      <point x="1096" y="1274" type="move" name="mark0"/>
    </contour>
  </outline>
</glyph>
<glyph name="lvocalicvowelsigndeva" format="1">
  <advance width="-3"/>
  <unicode hex="0962"/>
  <outline>
    <contour>
      <point x="-348" y="-241" type="curve"/>
      <point x="-464" y="-328" type="line"/>
      <point x="-514" y="-260"/>
      <point x="-554" y="-234"/>
      <point x="-612" y="-234" type="curve" smooth="yes"/>
      <point x="-663" y="-234"/>
      <point x="-694" y="-271"/>
      <point x="-694" y="-318" type="curve" smooth="yes"/>
      <point x="-694" y="-373"/>
      <point x="-661" y="-420"/>
      <point x="-583" y="-489" type="curve"/>
      <point x="-719" y="-561" type="line"/>
      <point x="-820" y="-475"/>
      <point x="-882" y="-373"/>
      <point x="-882" y="-274" type="curve" smooth="yes"/>
      <point x="-882" y="-161"/>
      <point x="-807" y="-76"/>
      <point x="-666" y="-76" type="curve" smooth="yes"/>
      <point x="-543" y="-76"/>
      <point x="-442" y="-136"/>
    </contour>
    <contour>
      <point x="-194" y="-371" type="curve"/>
      <point x="-262" y="-428" type="line"/>
      <point x="-237" y="-393"/>
      <point x="-225" y="-338"/>
      <point x="-225" y="-304" type="curve" smooth="yes"/>
      <point x="-225" y="-272"/>
      <point x="-246" y="-256"/>
      <point x="-283" y="-256" type="curve" smooth="yes"/>
      <point x="-332" y="-256"/>
      <point x="-382" y="-305"/>
      <point x="-410" y="-422" type="curve"/>
      <point x="-578" y="-365" type="line"/>
      <point x="-542" y="-219"/>
      <point x="-468" y="-100"/>
      <point x="-296" y="-99" type="curve" smooth="yes"/>
      <point x="-157" y="-97"/>
      <point x="-53" y="-197"/>
      <point x="-53" y="-316" type="curve" smooth="yes"/>
      <point x="-53" y="-362"/>
      <point x="-62" y="-415"/>
      <point x="-83" y="-464" type="curve"/>
      <point x="-166" y="-464"/>
      <point x="-198" y="-493"/>
      <point x="-198" y="-519" type="curve" smooth="yes"/>
      <point x="-198" y="-547"/>
      <point x="-182" y="-562"/>
      <point x="-137" y="-562" type="curve" smooth="yes"/>
      <point x="-105" y="-562"/>
      <point x="-78" y="-555"/>
      <point x="-34" y="-536" type="curve"/>
      <point x="-14" y="-657" type="line"/>
      <point x="-64" y="-674"/>
      <point x="-100" y="-679"/>
      <point x="-148" y="-679" type="curve" smooth="yes"/>
      <point x="-277" y="-679"/>
      <point x="-366" y="-609"/>
      <point x="-366" y="-527" type="curve" smooth="yes"/>
      <point x="-366" y="-448"/>
      <point x="-303" y="-387"/>
    </contour>
    <contour>
      <point x="-419" y="6" type="move" name="_mark0"/>
    </contour>
  </outline>
</glyph>
<glyph name="sixdeva" format="1">
  <advance width="950"/>
  <unicode hex="096C"/>
  <outline>
    <contour>
      <point x="660" y="152" type="line"/>
      <point x="903" y="225" type="line"/>
      <point x="1076" y="-107" type="line"/>
      <point x="839" y="-200" type="line"/>
    </contour>
    <contour>
      <point x="442" y="395" type="curve" smooth="yes"/>
      <point x="442" y="317"/>
      <point x="504" y="268"/>
      <point x="624" y="268" type="curve" smooth="yes"/>
      <point x="678" y="268"/>
      <point x="733" y="277"/>
      <point x="806" y="299" type="curve"/>
      <point x="641" y="197" type="line"/>
      <point x="625" y="222"/>
      <point x="600" y="263"/>
      <point x="600" y="310" type="curve" smooth="yes"/>
      <point x="600" y="384"/>
      <point x="663" y="436"/>
      <point x="784" y="436" type="curve" smooth="yes"/>
      <point x="930" y="436"/>
      <point x="1045" y="351"/>
      <point x="1045" y="255" type="curve" smooth="yes"/>
      <point x="1045" y="157"/>
      <point x="928" y="42"/>
      <point x="698" y="42" type="curve" smooth="yes"/>
      <point x="375" y="42"/>
      <point x="140" y="208"/>
      <point x="140" y="445" type="curve" smooth="yes"/>
      <point x="140" y="643"/>
      <point x="301" y="814"/>
      <point x="731" y="848" type="curve"/>
      <point x="815" y="602" type="line"/>
      <point x="518" y="580"/>
      <point x="442" y="486"/>
    </contour>
    <contour>
      <point x="382" y="586" type="line"/>
      <point x="185" y="670"/>
      <point x="68" y="798"/>
      <point x="68" y="951" type="curve" smooth="yes"/>
      <point x="68" y="1159"/>
      <point x="218" y="1300"/>
      <point x="669" y="1294" type="curve"/>
      <point x="731" y="1064" type="line"/>
      <point x="441" y="1062"/>
      <point x="377" y="979"/>
      <point x="377" y="895" type="curve" smooth="yes"/>
      <point x="377" y="825"/>
      <point x="434" y="778"/>
      <point x="563" y="742" type="curve"/>
    </contour>
  </outline>
</glyph>
<glyph name="uni200C" format="1">
  <advance width="92"/>
  <unicode hex="200C"/>
  <outline>
    <contour>
      <point x="-50" y="-336" type="line"/>
      <point x="-50" y="1610" type="line"/>
      <point x="143" y="1610" type="line"/>
      <point x="143" y="-336" type="line"/>
    </contour>
  </outline>
</glyph>
<glyph name="quoteright.deva" format="1">
  <advance width="461"/>
  <unicode hex="2019"/>
  <outline>
    <contour>
      <point x="429" y="1314" type="line"/>
      <point x="443" y="1294" type="line"/>
      <point x="388" y="1075"/>
      <point x="334" y="906"/>
      <point x="283" y="789" type="curve"/>
      <point x="33" y="789" type="line"/>
      <point x="74" y="980"/>
      <point x="103" y="1155"/>
      <point x="121" y="1314" type="curve"/>
    </contour>
  </outline>
</glyph>
<glyph name="quotedblleft.deva" format="1">
  <advance width="920"/>
  <unicode hex="201C"/>
  <outline>
    <contour>
      <point x="490" y="789" type="line"/>
      <point x="477" y="809" type="line"/>
      <point x="537" y="1044"/>
      <point x="590" y="1212"/>
      <point x="636" y="1314" type="curve"/>
      <point x="886" y="1314" type="line"/>
      <point x="846" y="1127"/>
      <point x="817" y="952"/>
      <point x="798" y="789" type="curve"/>
    </contour>
    <contour>
      <point x="31" y="789" type="line"/>
      <point x="18" y="809" type="line"/>
      <point x="78" y="1044"/>
      <point x="131" y="1212"/>
      <point x="177" y="1314" type="curve"/>
      <point x="427" y="1314" type="line"/>
      <point x="387" y="1127"/>
      <point x="358" y="952"/>
      <point x="339" y="789" type="curve"/>
    </contour>
  </outline>
</glyph>
<glyph name="aianusvaradeva" format="1">
  <advance width="1340"/>
  <outline>
    <contour>
      <point x="0" y="0" type="line"/>
      <point x="1340" y="0" type="line"/>
      <point x="1340" y="20" type="line"/>
      <point x="0" y="20" type="line"/>
    </contour>
  </outline>
</glyph>
<glyph name="bharaprehalfdeva" format="1">
  <advance width="874"/>
  <outline>
    <contour>
      <point x="1178" y="230" type="line"/>
      <point x="577" y="-176" type="line"/>
      <point x="398" y="39" type="line"/>
      <point x="1018" y="464" type="line"/>
    </contour>
    <contour>
      <point x="324" y="995" type="line"/>
      <point x="324" y="1082"/>
      <point x="284" y="1141"/>
      <point x="229" y="1141" type="curve" smooth="yes"/>
      <point x="177" y="1141"/>
      <point x="153" y="1107"/>
      <point x="153" y="1060" type="curve" smooth="yes"/>
      <point x="153" y="994"/>
      <point x="213" y="938"/>
      <point x="381" y="932" type="curve"/>
      <point x="367" y="774" type="line"/>
      <point x="76" y="775"/>
      <point x="-148" y="885"/>
      <point x="-148" y="1123" type="curve" smooth="yes"/>
      <point x="-148" y="1255"/>
      <point x="-47" y="1379"/>
      <point x="202" y="1379" type="curve" smooth="yes"/>
      <point x="492" y="1379"/>
      <point x="672" y="1206"/>
      <point x="672" y="949" type="curve" smooth="yes"/>
      <point x="672" y="668" type="line"/>
      <point x="639" y="710" type="line"/>
      <point x="1177" y="710" type="line"/>
      <point x="1177" y="441" type="line"/>
      <point x="622" y="441" type="line"/>
      <point x="672" y="490" type="line"/>
      <point x="672" y="366" type="line"/>
      <point x="672" y="277"/>
      <point x="638" y="223"/>
      <point x="550" y="223" type="curve" smooth="yes"/>
      <point x="389" y="223"/>
      <point x="158" y="450"/>
      <point x="158" y="576" type="curve" smooth="yes"/>
      <point x="158" y="668"/>
      <point x="206" y="709"/>
      <point x="276" y="709" type="curve" smooth="yes"/>
      <point x="360" y="709" type="line"/>
      <point x="324" y="680" type="line"/>
    </contour>
  </outline>
</glyph>
<glyph name="chaprehalfdeva" format="1">
  <advance width="1603"/>
  <outline>
    <contour>
      <point x="684" y="806" type="curve"/>
      <point x="772" y="536" type="line"/>
      <point x="771" y="536"/>
      <point x="768" y="536"/>
      <point x="767" y="536" type="curve" smooth="yes"/>
      <point x="598" y="521"/>
      <point x="544" y="455"/>
      <point x="544" y="389" type="curve" smooth="yes"/>
      <point x="544" y="315"/>
      <point x="609" y="255"/>
      <point x="743" y="255" type="curve" smooth="yes"/>
      <point x="997" y="255"/>
      <point x="1263" y="480"/>
      <point x="1263" y="664" type="curve" smooth="yes"/>
      <point x="1263" y="729"/>
      <point x="1225" y="767"/>
      <point x="1177" y="767" type="curve" smooth="yes"/>
      <point x="1129" y="767"/>
      <point x="1094" y="728"/>
      <point x="1094" y="667" type="curve" smooth="yes"/>
      <point x="1094" y="581"/>
      <point x="1143" y="502"/>
      <point x="1325" y="360" type="curve"/>
      <point x="1164" y="218" type="line"/>
      <point x="898" y="405"/>
      <point x="809" y="548"/>
      <point x="809" y="731" type="curve" smooth="yes"/>
      <point x="809" y="858"/>
      <point x="904" y="1004"/>
      <point x="1139" y="1004" type="curve" smooth="yes"/>
      <point x="1389" y="1004"/>
      <point x="1548" y="846"/>
      <point x="1548" y="620" type="curve" smooth="yes"/>
      <point x="1548" y="349"/>
      <point x="1238" y="-2"/>
      <point x="749" y="-2" type="curve" smooth="yes"/>
      <point x="392" y="-2"/>
      <point x="197" y="212"/>
      <point x="197" y="437" type="curve" smooth="yes"/>
      <point x="197" y="633"/>
      <point x="353" y="799"/>
      <point x="679" y="806" type="curve" smooth="yes"/>
      <point x="681" y="806"/>
      <point x="682" y="806"/>
    </contour>
    <contour>
      <point x="603" y="765" type="curve"/>
      <point x="381" y="590" type="line"/>
      <point x="148" y="663"/>
      <point x="62" y="791"/>
      <point x="62" y="956" type="curve" smooth="yes"/>
      <point x="62" y="1094"/>
      <point x="206" y="1259"/>
      <point x="516" y="1264" type="curve"/>
      <point x="615" y="1085" type="line"/>
      <point x="471" y="1074"/>
      <point x="406" y="992"/>
      <point x="406" y="920" type="curve" smooth="yes"/>
      <point x="406" y="844"/>
      <point x="457" y="789"/>
    </contour>
    <contour>
      <point x="1652" y="1065" type="line"/>
      <point x="-57" y="1065" type="line"/>
      <point x="-57" y="1293" type="line"/>
      <point x="1652" y="1293" type="line"/>
    </contour>
  </outline>
</glyph>
<glyph name="dadhayadeva" format="1">
  <advance width="2437"/>
  <outline>
    <contour>
      <point x="1022" y="66" type="line"/>
      <point x="894" y="20"/>
      <point x="848" y="-65"/>
      <point x="847" y="-115" type="curve" smooth="yes"/>
      <point x="847" y="-163"/>
      <point x="882" y="-201"/>
      <point x="931" y="-200" type="curve" smooth="yes"/>
      <point x="1069" y="-198"/>
      <point x="1188" y="-39"/>
      <point x="1165" y="187" type="curve"/>
      <point x="1434" y="-76" type="line"/>
      <point x="1343" y="-275"/>
      <point x="1206" y="-443"/>
      <point x="949" y="-443" type="curve" smooth="yes"/>
      <point x="702" y="-443"/>
      <point x="564" y="-302"/>
      <point x="564" y="-120" type="curve" smooth="yes"/>
      <point x="564" y="6"/>
      <point x="634" y="130"/>
      <point x="826" y="245" type="curve"/>
    </contour>
    <contour>
      <point x="-37" y="1065" type="line"/>
      <point x="-37" y="1293" type="line"/>
      <point x="2465" y="1293" type="line"/>
      <point x="2465" y="1065" type="line"/>
    </contour>
    <contour>
      <point x="1132" y="40" type="curve" smooth="yes"/>
      <point x="791" y="40"/>
      <point x="532" y="248"/>
      <point x="532" y="507" type="curve" smooth="yes"/>
      <point x="532" y="733"/>
      <point x="693" y="893"/>
      <point x="1033" y="893" type="curve" smooth="yes"/>
      <point x="1185" y="893" type="line"/>
      <point x="1134" y="838" type="line"/>
      <point x="1134" y="1096" type="line"/>
      <point x="1464" y="1096" type="line"/>
      <point x="1464" y="642" type="line"/>
      <point x="1160" y="642" type="line"/>
      <point x="942" y="642"/>
      <point x="866" y="559"/>
      <point x="866" y="450" type="curve" smooth="yes"/>
      <point x="866" y="339"/>
      <point x="974" y="263"/>
      <point x="1093" y="263" type="curve" smooth="yes"/>
      <point x="1137" y="263"/>
      <point x="1192" y="271"/>
      <point x="1266" y="294" type="curve"/>
      <point x="1148" y="191" type="line"/>
      <point x="1111" y="245"/>
      <point x="1094" y="307"/>
      <point x="1094" y="352" type="curve" smooth="yes"/>
      <point x="1094" y="418"/>
      <point x="1145" y="495"/>
      <point x="1280" y="495" type="curve" smooth="yes"/>
      <point x="1466" y="495"/>
      <point x="1606" y="394"/>
      <point x="1606" y="289" type="curve" smooth="yes"/>
      <point x="1606" y="173"/>
      <point x="1437" y="40"/>
    </contour>
    <contour>
      <point x="650" y="-35" type="line"/>
      <point x="581" y="-63"/>
      <point x="524" y="-70"/>
      <point x="458" y="-70" type="curve" smooth="yes"/>
      <point x="230" y="-70"/>
      <point x="91" y="67"/>
      <point x="91" y="236" type="curve" smooth="yes"/>
      <point x="91" y="368"/>
      <point x="151" y="484"/>
      <point x="255" y="566" type="curve"/>
      <point x="453" y="422" type="line"/>
      <point x="412" y="353"/>
      <point x="396" y="315"/>
      <point x="396" y="258" type="curve" smooth="yes"/>
      <point x="396" y="185"/>
      <point x="453" y="142"/>
      <point x="545" y="144" type="curve" smooth="yes"/>
      <point x="628" y="145"/>
      <point x="696" y="165"/>
      <point x="755" y="190" type="curve"/>
    </contour>
    <contour>
      <point x="1327" y="174" type="line"/>
      <point x="1419" y="28"/>
      <point x="1490" y="-32"/>
      <point x="1634" y="-32" type="curve" smooth="yes"/>
      <point x="1766" y="-32"/>
      <point x="1896" y="53"/>
      <point x="1952" y="180" type="curve"/>
      <point x="1952" y="-279" type="line"/>
      <point x="1895" y="-300"/>
      <point x="1837" y="-308"/>
      <point x="1727" y="-308" type="curve" smooth="yes"/>
      <point x="1518" y="-308"/>
      <point x="1266" y="-209"/>
      <point x="1118" y="125" type="curve"/>
    </contour>
    <contour>
      <point x="1905" y="1104" type="line"/>
      <point x="2254" y="1104" type="line"/>
      <point x="2254" y="-495" type="line"/>
      <point x="1905" y="-495" type="line"/>
    </contour>
  </outline>
</glyph>
<glyph name="ghaprehalfdeva" format="1">
  <advance width="830"/>
  <outline>
    <contour>
      <point x="313" y="691" type="line"/>
      <point x="107" y="751"/>
      <point x="-2" y="886"/>
      <point x="-2" y="1023" type="curve" smooth="yes"/>
      <point x="-2" y="1094"/>
      <point x="18" y="1160"/>
      <point x="72" y="1210" type="curve"/>
      <point x="408" y="1126" type="line"/>
      <point x="364" y="1085"/>
      <point x="353" y="1048"/>
      <point x="353" y="998" type="curve" smooth="yes"/>
      <point x="353" y="934"/>
      <point x="405" y="876"/>
      <point x="560" y="876" type="curve"/>
    </contour>
    <contour>
      <point x="-58" y="1065" type="line"/>
      <point x="-58" y="1293" type="line"/>
      <point x="1020" y="1293" type="line"/>
      <point x="1020" y="1065" type="line"/>
    </contour>
    <contour>
      <point x="976" y="667" type="curve"/>
      <point x="1174" y="411" type="line"/>
      <point x="1034" y="256"/>
      <point x="888" y="158"/>
      <point x="650" y="152" type="curve" smooth="yes"/>
      <point x="380" y="145"/>
      <point x="224" y="336"/>
      <point x="232" y="526" type="curve" smooth="yes"/>
      <point x="241" y="693"/>
      <point x="366" y="883"/>
      <point x="687" y="891" type="curve"/>
      <point x="688" y="891"/>
      <point x="693" y="887"/>
      <point x="695" y="887" type="curve"/>
      <point x="685" y="878"/>
      <point x="762" y="604"/>
      <point x="752" y="604" type="curve" smooth="yes"/>
      <point x="739" y="604"/>
      <point x="732" y="611"/>
      <point x="730" y="622" type="curve" smooth="yes"/>
      <point x="618" y="631"/>
      <point x="530" y="590"/>
      <point x="547" y="521" type="curve" smooth="yes"/>
      <point x="547" y="477"/>
      <point x="583" y="445"/>
      <point x="646" y="445" type="curve"/>
      <point x="777" y="445"/>
      <point x="900" y="528"/>
    </contour>
  </outline>
</glyph>
<glyph name="harvocalicdeva" format="1">
  <advance width="1216"/>
  <outline>
    <contour>
      <point x="1248" y="1065" type="line"/>
      <point x="-21" y="1065" type="line"/>
      <point x="-21" y="1293" type="line"/>
      <point x="1248" y="1293" type="line"/>
    </contour>
    <contour>
      <point x="680" y="1075" type="line"/>
      <point x="1028" y="1075" type="line"/>
      <point x="1028" y="708" type="line"/>
      <point x="532" y="708" type="line"/>
      <point x="434" y="708"/>
      <point x="394" y="668"/>
      <point x="394" y="616" type="curve" smooth="yes"/>
      <point x="394" y="564"/>
      <point x="439" y="532"/>
      <point x="536" y="508" type="curve"/>
      <point x="304" y="341" type="line"/>
      <point x="137" y="442"/>
      <point x="57" y="553"/>
      <point x="57" y="688" type="curve" smooth="yes"/>
      <point x="57" y="826"/>
      <point x="167" y="936"/>
      <point x="388" y="936" type="curve" smooth="yes"/>
      <point x="719" y="936" type="line"/>
      <point x="680" y="883" type="line"/>
    </contour>
    <contour>
      <point x="1233" y="110" type="curve"/>
      <point x="1124" y="110" type="line"/>
      <point x="1034" y="110"/>
      <point x="981" y="64"/>
      <point x="981" y="8" type="curve" smooth="yes"/>
      <point x="981" y="-37"/>
      <point x="1018" y="-65"/>
      <point x="1082" y="-65" type="curve" smooth="yes"/>
      <point x="1139" y="-65"/>
      <point x="1193" y="-52"/>
      <point x="1280" y="-23" type="curve"/>
      <point x="1316" y="-214" type="line"/>
      <point x="1200" y="-243"/>
      <point x="1153" y="-247"/>
      <point x="1069" y="-247" type="curve" smooth="yes"/>
      <point x="879" y="-247"/>
      <point x="692" y="-152"/>
      <point x="692" y="29" type="curve" smooth="yes"/>
      <point x="692" y="185"/>
      <point x="845" y="266"/>
      <point x="1033" y="266" type="curve"/>
      <point x="958" y="231" type="line"/>
      <point x="958" y="289"/>
      <point x="892" y="327"/>
      <point x="728" y="327" type="curve" smooth="yes"/>
      <point x="560" y="327"/>
      <point x="484" y="224"/>
      <point x="484" y="112" type="curve" smooth="yes"/>
      <point x="484" y="-26"/>
      <point x="557" y="-130"/>
      <point x="814" y="-280" type="curve"/>
      <point x="667" y="-459" type="line"/>
      <point x="360" y="-283"/>
      <point x="166" y="-61"/>
      <point x="166" y="182" type="curve" smooth="yes"/>
      <point x="166" y="384"/>
      <point x="319" y="577"/>
      <point x="694" y="577" type="curve" smooth="yes"/>
      <point x="1041" y="577"/>
      <point x="1241" y="414"/>
      <point x="1241" y="237" type="curve" smooth="yes"/>
      <point x="1241" y="188"/>
      <point x="1237" y="148"/>
    </contour>
  </outline>
</glyph>
<glyph name="iivowelsign1deva" format="1">
  <advance width="676"/>
  <outline>
    <contour>
      <point x="0" y="0" type="line"/>
      <point x="676" y="0" type="line"/>
      <point x="676" y="20" type="line"/>
      <point x="0" y="20" type="line"/>
    </contour>
  </outline>
</glyph>
<glyph name="ivowelsign01deva" format="1">
  <advance width="676"/>
  <outline>
    <contour>
      <point x="139" y="1254" type="line"/>
      <point x="139" y="1344" type="line"/>
      <point x="139" y="1603"/>
      <point x="307" y="1826"/>
      <point x="598" y="1826" type="curve" smooth="yes"/>
      <point x="977" y="1826"/>
      <point x="1265" y="1599"/>
      <point x="1473" y="1254" type="curve"/>
      <point x="1111" y="1254" type="line"/>
      <point x="986" y="1448"/>
      <point x="833" y="1522"/>
      <point x="677" y="1522" type="curve" smooth="yes"/>
      <point x="532" y="1522"/>
      <point x="488" y="1423"/>
      <point x="488" y="1317" type="curve" smooth="yes"/>
      <point x="488" y="1254" type="line"/>
    </contour>
    <component base="aavowelsigndeva"/>
  </outline>
</glyph>
<glyph name="ivowelsign02deva" format="1">
  <advance width="676"/>
  <outline>
    <contour>
      <point x="139" y="1254" type="line"/>
      <point x="139" y="1342" type="line"/>
      <point x="139" y="1601"/>
      <point x="274" y="1826"/>
      <point x="636" y="1826" type="curve" smooth="yes"/>
      <point x="1022" y="1826"/>
      <point x="1351" y="1613"/>
      <point x="1605" y="1254" type="curve"/>
      <point x="1240" y="1254" type="line"/>
      <point x="1044" y="1452"/>
      <point x="902" y="1522"/>
      <point x="710" y="1522" type="curve" smooth="yes"/>
      <point x="543" y="1522"/>
      <point x="488" y="1421"/>
      <point x="488" y="1314" type="curve" smooth="yes"/>
      <point x="488" y="1254" type="line"/>
    </contour>
    <component base="aavowelsigndeva"/>
  </outline>
</glyph>
<glyph name="ivowelsign11deva" format="1">
  <advance width="676"/>
  <outline>
    <contour>
      <point x="139" y="1254" type="line"/>
      <point x="139" y="1339" type="line"/>
      <point x="139" y="1600"/>
      <point x="330" y="1827"/>
      <point x="975" y="1827" type="curve" smooth="yes"/>
      <point x="1650" y="1827"/>
      <point x="2324" y="1620"/>
      <point x="2846" y="1254" type="curve"/>
      <point x="2394" y="1254" type="line"/>
      <point x="1973" y="1469"/>
      <point x="1452" y="1557"/>
      <point x="1037" y="1557" type="curve" smooth="yes"/>
      <point x="596" y="1557"/>
      <point x="488" y="1430"/>
      <point x="488" y="1312" type="curve" smooth="yes"/>
      <point x="488" y="1254" type="line"/>
    </contour>
    <component base="aavowelsigndeva"/>
  </outline>
</glyph>
<glyph name="janyaprehalfdeva" format="1">
  <advance width="864"/>
  <outline>
    <contour>
      <point x="456" y="106" type="curve" smooth="yes"/>
      <point x="723" y="-244" type="line"/>
      <point x="494" y="-348" type="line"/>
      <point x="215" y="13" type="line"/>
      <point x="339" y="-54" type="line"/>
      <point x="97" y="-54"/>
      <point x="12" y="26"/>
      <point x="12" y="113" type="curve" smooth="yes"/>
      <point x="12" y="201"/>
      <point x="98" y="279"/>
      <point x="204" y="279" type="curve" smooth="yes"/>
      <point x="293" y="279"/>
      <point x="361" y="230"/>
    </contour>
    <contour>
      <point x="-129" y="1065" type="line"/>
      <point x="-129" y="1293" type="line"/>
      <point x="1224" y="1293" type="line"/>
      <point x="1224" y="1065" type="line"/>
    </contour>
    <contour>
      <point x="462" y="692" type="line" smooth="yes"/>
      <point x="398" y="692"/>
      <point x="386" y="680"/>
      <point x="386" y="646" type="curve" smooth="yes"/>
      <point x="386" y="612"/>
      <point x="421" y="593"/>
      <point x="538" y="572" type="curve" smooth="yes"/>
      <point x="752" y="532"/>
      <point x="850" y="425"/>
      <point x="850" y="271" type="curve" smooth="yes"/>
      <point x="850" y="112"/>
      <point x="694" y="-52"/>
      <point x="388" y="-52" type="curve"/>
      <point x="355" y="168" type="line"/>
      <point x="475" y="168"/>
      <point x="544" y="220"/>
      <point x="544" y="267" type="curve" smooth="yes"/>
      <point x="544" y="321"/>
      <point x="514" y="345"/>
      <point x="336" y="390" type="curve" smooth="yes"/>
      <point x="151" y="436"/>
      <point x="62" y="536"/>
      <point x="62" y="685" type="curve" smooth="yes"/>
      <point x="62" y="815"/>
      <point x="174" y="912"/>
      <point x="377" y="912" type="curve" smooth="yes"/>
      <point x="1211" y="912" type="line"/>
      <point x="1211" y="692" type="line"/>
    </contour>
  </outline>
</glyph>
<glyph name="kanuktaradeva" format="1">
  <advance width="1926"/>
  <outline>
    <component base="karadeva"/>
    <component base="nuktadeva" xOffset="1156" yOffset="57"/>
    <contour>
      <point x="915" y="0" type="move" name="mark0"/>
    </contour>
  </outline>
</glyph>
<glyph name="khanuktaradeva" format="1">
  <advance width="2052"/>
  <outline>
    <contour>
      <point x="0" y="0" type="line"/>
      <point x="2052" y="0" type="line"/>
      <point x="2052" y="20" type="line"/>
      <point x="0" y="20" type="line"/>
    </contour>
  </outline>
</glyph>
<glyph name="laprehalfdeva" format="1">
  <advance width="988"/>
  <outline>
    <contour>
      <point x="1240" y="825" type="line"/>
      <point x="1339" y="551" type="line"/>
      <point x="730" y="169" type="line"/>
      <point x="546" y="398" type="line"/>
    </contour>
    <contour>
      <point x="1002" y="596" type="curve"/>
      <point x="778" y="433" type="line"/>
      <point x="698" y="553"/>
      <point x="624" y="597"/>
      <point x="525" y="597" type="curve" smooth="yes"/>
      <point x="437" y="597"/>
      <point x="366" y="521"/>
      <point x="366" y="429" type="curve" smooth="yes"/>
      <point x="366" y="338"/>
      <point x="410" y="245"/>
      <point x="546" y="104" type="curve"/>
      <point x="314" y="-26" type="line"/>
      <point x="171" y="119"/>
      <point x="58" y="298"/>
      <point x="58" y="509" type="curve" smooth="yes"/>
      <point x="58" y="725"/>
      <point x="219" y="899"/>
      <point x="477" y="899" type="curve" smooth="yes"/>
      <point x="667" y="899"/>
      <point x="834" y="806"/>
    </contour>
    <contour>
      <point x="-22" y="1065" type="line"/>
      <point x="-22" y="1293" type="line"/>
      <point x="1305" y="1293" type="line"/>
      <point x="1305" y="1065" type="line"/>
    </contour>
  </outline>
</glyph>
<glyph name="maraprehalfdeva" format="1">
  <advance width="815"/>
  <outline>
    <contour>
      <point x="1098" y="230" type="line"/>
      <point x="498" y="-176" type="line"/>
      <point x="319" y="39" type="line"/>
      <point x="938" y="464" type="line"/>
    </contour>
    <contour>
      <point x="-26" y="1065" type="line"/>
      <point x="-26" y="1293" type="line"/>
      <point x="1030" y="1293" type="line"/>
      <point x="1030" y="1065" type="line"/>
    </contour>
    <contour>
      <point x="214" y="1104" type="line"/>
      <point x="562" y="1104" type="line"/>
      <point x="562" y="677" type="line"/>
      <point x="530" y="720" type="line"/>
      <point x="1069" y="720" type="line"/>
      <point x="1069" y="451" type="line"/>
      <point x="512" y="451" type="line"/>
      <point x="562" y="500" type="line"/>
      <point x="562" y="356" type="line"/>
      <point x="562" y="267"/>
      <point x="528" y="214"/>
      <point x="440" y="214" type="curve" smooth="yes"/>
      <point x="261" y="214"/>
      <point x="48" y="440"/>
      <point x="48" y="585" type="curve" smooth="yes"/>
      <point x="48" y="677"/>
      <point x="96" y="719"/>
      <point x="166" y="719" type="curve" smooth="yes"/>
      <point x="250" y="719" type="line"/>
      <point x="214" y="690" type="line"/>
    </contour>
  </outline>
</glyph>
<glyph name="nnaprehalfdeva" format="1">
  <advance width="1197"/>
  <outline>
    <contour>
      <point x="701" y="1086" type="line"/>
      <point x="1050" y="1086" type="line"/>
      <point x="1050" y="716" type="line"/>
      <point x="1050" y="444"/>
      <point x="919" y="265"/>
      <point x="603" y="265" type="curve" smooth="yes"/>
      <point x="280" y="265"/>
      <point x="102" y="466"/>
      <point x="102" y="728" type="curve" smooth="yes"/>
      <point x="102" y="1086" type="line"/>
      <point x="451" y="1086" type="line"/>
      <point x="451" y="652" type="line"/>
      <point x="451" y="563"/>
      <point x="494" y="515"/>
      <point x="563" y="515" type="curve" smooth="yes"/>
      <point x="651" y="515"/>
      <point x="701" y="587"/>
      <point x="701" y="703" type="curve" smooth="yes"/>
    </contour>
    <contour>
      <point x="-80" y="1065" type="line"/>
      <point x="-80" y="1293" type="line"/>
      <point x="1527" y="1293" type="line"/>
      <point x="1527" y="1065" type="line"/>
    </contour>
  </outline>
</glyph>
<glyph name="nyaraprehalfdeva" format="1">
  <advance width="1085"/>
  <outline>
    <contour>
      <point x="1347" y="187" type="line"/>
      <point x="635" y="-204" type="line"/>
      <point x="475" y="-8" type="line"/>
      <point x="1207" y="401" type="line"/>
    </contour>
    <contour>
      <point x="835" y="446" type="curve"/>
      <point x="835" y="717" type="line"/>
      <point x="869" y="706"/>
      <point x="949" y="701"/>
      <point x="994" y="701" type="curve" smooth="yes"/>
      <point x="1108" y="701"/>
      <point x="1265" y="739"/>
      <point x="1395" y="815" type="curve"/>
      <point x="1450" y="498" type="line"/>
      <point x="1336" y="446"/>
      <point x="1188" y="421"/>
      <point x="1067" y="421" type="curve" smooth="yes"/>
      <point x="996" y="421"/>
      <point x="887" y="434"/>
    </contour>
    <contour>
      <point x="949" y="542" type="curve" smooth="yes"/>
      <point x="949" y="304"/>
      <point x="751" y="152"/>
      <point x="531" y="152" type="curve" smooth="yes"/>
      <point x="347" y="152"/>
      <point x="165" y="217"/>
      <point x="-48" y="393" type="curve"/>
      <point x="50" y="631" type="line"/>
      <point x="230" y="481"/>
      <point x="349" y="434"/>
      <point x="453" y="434" type="curve" smooth="yes"/>
      <point x="566" y="434"/>
      <point x="649" y="485"/>
      <point x="648" y="564" type="curve" smooth="yes"/>
      <point x="647" y="643"/>
      <point x="579" y="701"/>
      <point x="481" y="701" type="curve" smooth="yes"/>
      <point x="415" y="701"/>
      <point x="339" y="674"/>
      <point x="271" y="632" type="curve"/>
      <point x="155" y="875" type="line"/>
      <point x="227" y="929"/>
      <point x="345" y="976"/>
      <point x="463" y="976" type="curve" smooth="yes"/>
      <point x="711" y="976"/>
      <point x="949" y="806"/>
    </contour>
    <contour>
      <point x="-63" y="1065" type="line"/>
      <point x="-63" y="1293" type="line"/>
      <point x="1212" y="1293" type="line"/>
      <point x="1212" y="1065" type="line"/>
    </contour>
  </outline>
</glyph>
<glyph name="ocandraanusvaradeva" format="1">
  <advance width="2325"/>
  <outline>
    <contour>
      <point x="0" y="0" type="line"/>
      <point x="2325" y="0" type="line"/>
      <point x="2325" y="20" type="line"/>
      <point x="0" y="20" type="line"/>
    </contour>
  </outline>
</glyph>
<glyph name="phanuktaradeva" format="1">
  <advance width="1891"/>
  <outline>
    <component base="pharadeva"/>
    <component base="nuktadeva" xOffset="1134" yOffset="66"/>
    <contour>
      <point x="881" y="0" type="move" name="mark0"/>
    </contour>
  </outline>
</glyph>
<glyph name="sanuktaprehalfdeva" format="1">
  <advance width="1063"/>
  <outline>
    <contour>
      <point x="0" y="0" type="line"/>
      <point x="1063" y="0" type="line"/>
      <point x="1063" y="20" type="line"/>
      <point x="0" y="20" type="line"/>
    </contour>
  </outline>
</glyph>
<glyph name="shavadeva" format="1">
  <advance width="1555"/>
  <outline>
    <contour>
      <point x="152" y="336" type="line"/>
      <point x="3" y="572" type="line"/>
      <point x="320" y="736" type="line"/>
      <point x="519" y="836"/>
      <point x="593" y="905"/>
      <point x="593" y="982" type="curve" smooth="yes"/>
      <point x="593" y="1035"/>
      <point x="559" y="1076"/>
      <point x="505" y="1076" type="curve" smooth="yes"/>
      <point x="438" y="1076"/>
      <point x="408" y="1036"/>
      <point x="408" y="986" type="curve" smooth="yes"/>
      <point x="408" y="872"/>
      <point x="615" y="775"/>
      <point x="1198" y="691" type="curve"/>
      <point x="1127" y="457" type="line"/>
      <point x="352" y="536"/>
      <point x="106" y="786"/>
      <point x="106" y="1027" type="curve" smooth="yes"/>
      <point x="106" y="1180"/>
      <point x="232" y="1326"/>
      <point x="470" y="1326" type="curve" smooth="yes"/>
      <point x="715" y="1326"/>
      <point x="869" y="1173"/>
      <point x="869" y="975" type="curve" smooth="yes"/>
      <point x="869" y="785"/>
      <point x="759" y="647"/>
      <point x="450" y="489" type="curve" smooth="yes"/>
    </contour>
    <contour>
      <point x="1018" y="1104" type="line"/>
      <point x="1366" y="1104" type="line"/>
      <point x="1366" y="-345" type="line"/>
      <point x="1018" y="-345" type="line"/>
    </contour>
    <contour>
      <point x="1580" y="1065" type="line"/>
      <point x="936" y="1065" type="line"/>
      <point x="936" y="1293" type="line"/>
      <point x="1580" y="1293" type="line"/>
    </contour>
    <contour>
      <point x="1055" y="102" type="curve"/>
      <point x="1055" y="-208" type="line"/>
      <point x="990" y="-242"/>
      <point x="905" y="-255"/>
      <point x="812" y="-255" type="curve" smooth="yes"/>
      <point x="529" y="-255"/>
      <point x="339" y="-67"/>
      <point x="339" y="124" type="curve" smooth="yes"/>
      <point x="339" y="280"/>
      <point x="485" y="410"/>
      <point x="711" y="410" type="curve" smooth="yes"/>
      <point x="894" y="410"/>
      <point x="996" y="378"/>
      <point x="1111" y="320" type="curve"/>
      <point x="1109" y="104" type="line"/>
      <point x="995" y="173"/>
      <point x="918" y="194"/>
      <point x="806" y="194" type="curve" smooth="yes"/>
      <point x="707" y="194"/>
      <point x="645" y="134"/>
      <point x="645" y="70" type="curve" smooth="yes"/>
      <point x="645" y="10"/>
      <point x="700" y="-29"/>
      <point x="770" y="-29" type="curve" smooth="yes"/>
      <point x="870" y="-29"/>
      <point x="963" y="10"/>
    </contour>
  </outline>
</glyph>
